<?xml version="1.0" encoding="utf-8"?>
<!-- Generator: Adobe Illustrator 18.0.0, SVG Export Plug-In . SVG Version: 6.00 Build 0)  -->
<!DOCTYPE svg PUBLIC "-//W3C//DTD SVG 1.1//EN" "http://www.w3.org/Graphics/SVG/1.1/DTD/svg11.dtd">
<svg version="1.1" id="Layer_1" xmlns="http://www.w3.org/2000/svg" xmlns:xlink="http://www.w3.org/1999/xlink" x="0px" y="0px"
	 viewBox="0 0 400 100" enable-background="new 0 0 400 100" width="400" height="100" xml:space="preserve">
<g>
	<path fill="#FFFFFF" d="M49.1,63.7c6.6,0,11.1-5.2,11.1-12.8c0-7.5-4.4-12.8-11.1-12.8c-3.8,0-7.9,2.2-10,5v15.5
		C41.1,61.6,45.3,63.7,49.1,63.7 M27.6,72.8V12.2h11.5v22.3c3.5-4.5,8.3-6.7,13.5-6.7c11.2,0,19.5,8.7,19.5,23
		c0,14.7-8.3,23.1-19.5,23.1c-5.2,0-10.1-2.4-13.5-6.7v5.6L27.6,72.8L27.6,72.8z"/>
	<rect x="76.9" y="12.2" fill="#FFFFFF" width="11.5" height="60.6"/>
	<path fill="#FFFFFF" d="M124.3,72.8v-5.6c-3,3.3-8.2,6.6-15.4,6.6c-9.6,0-14.2-5.2-14.2-13.8V28.9h11.5v26.6c0,6.1,3.2,8.1,8.1,8.1
		c4.4,0,7.9-2.5,10-5V28.9h11.5v43.8L124.3,72.8L124.3,72.8z"/>
	<path fill="#FFFFFF" d="M163.3,37.3c-7.2,0-10.2,5-10.7,9.4h21.6C173.8,42.5,170.9,37.3,163.3,37.3 M140.6,50.8
		c0-12.8,9.5-23,22.7-23c13.2,0,22,9.8,22,24.1v2.7h-32.6c0.8,5.4,5.2,9.8,12.6,9.8c3.7,0,8.8-1.5,11.6-4.3l5.2,7.6
		c-4.3,4-11.2,6.1-18.1,6.1C150.6,74,140.6,64.9,140.6,50.8"/>
	<path fill="#FFFFFF" d="M222.5,50.8c0-7.5-4.5-12.8-11.2-12.8c-3.7,0-7.9,2.1-9.9,5v15.4c2,2.8,6.2,5,9.9,5
		C218,63.7,222.5,58.5,222.5,50.8 M201.5,67.2v22.3h-11.5V29h11.5v5.6c3.3-4.3,8.2-6.6,13.5-6.6c11.2,0,19.5,8.3,19.5,23
		S226.3,74,215,74C209.8,74,205.1,71.7,201.5,67.2"/>
	<path fill="#FFFFFF" d="M239.2,72.8V29h11.5v5.9c3.2-3.8,8.5-7,14-7v11.2c-0.8-0.2-1.9-0.3-3.2-0.3c-3.8,0-8.9,2.2-10.8,5v28.9
		L239.2,72.8L239.2,72.8z"/>
	<path fill="#FFFFFF" d="M269.5,29H281v43.8h-11.5V29z M268.3,17.3c0-3.8,3.1-6.8,6.8-6.8c3.8,0,6.9,3,6.9,6.8s-3.1,6.9-6.9,6.9
		C271.4,24.2,268.3,21.2,268.3,17.3"/>
	<path fill="#FFFFFF" d="M317.2,72.8V46.2c0-6.1-3.2-8.2-8.1-8.2c-4.5,0-7.9,2.6-10,5v29.6h-11.5V28.9h11.5v5.6
		c2.8-3.3,8.2-6.7,15.3-6.7c9.8,0,14.4,5.5,14.4,14v31L317.2,72.8L317.2,72.8z"/>
	<path fill="#FFFFFF" d="M339,61.8V39h-7.2V28.9h7.3V16.9h11.5v11.9h8.9V39h-8.9v19.7c0,2.8,1.4,4.9,4,4.9c1.7,0,3.3-0.6,4-1.3
		L361,71c-1.7,1.5-4.8,2.8-9.6,2.8C343.2,74,339,69.7,339,61.8"/>
	<path fill="#FFFFFF" d="M368.5,36.8c-2.1,0-3.9-1.8-3.9-3.9s1.8-3.9,3.9-3.9c2.1,0,3.9,1.7,3.9,3.9C372.4,35,370.8,36.8,368.5,36.8
		 M368.5,29.5c-1.9,0-3.3,1.5-3.3,3.3c0,1.9,1.5,3.3,3.3,3.3c1.9,0,3.3-1.5,3.3-3.3C371.9,31,370.4,29.5,368.5,29.5 M369.6,35.1
		l-1.2-1.8h-0.8v1.8h-0.6v-4.4h1.9c0.7,0,1.4,0.5,1.4,1.3c0,1-0.9,1.3-1.2,1.3l1.2,1.8L369.6,35.1L369.6,35.1z M368.9,31.1h-1.3v1.7
		h1.3c0.3,0,0.8-0.3,0.8-0.8C369.7,31.4,369.3,31.1,368.9,31.1"/>
</g>
</svg>
